<svg xmlns="http://www.w3.org/2000/svg" width="124.274" height="37.719" viewBox="0 0 124.274 37.719">
  <g id="Grupo_3052" data-name="Grupo 3052" transform="translate(-69.634 -11.72)">
    <g id="Grupo_3050" data-name="Grupo 3050">
      <g id="Grupo_3049" data-name="Grupo 3049">
        <g id="Grupo_3043" data-name="Grupo 3043">
          <path id="Trazado_4081" data-name="Trazado 4081" d="M76.99,14.011A7.366,7.366,0,0,0,75.38,12.8c-.733-.394-1.148.53-1.148.53L70.907,30.621Z" fill="#00afff"/>
        </g>
        <g id="Grupo_3044" data-name="Grupo 3044">
          <path id="Trazado_4082" data-name="Trazado 4082" d="M72.665,15.677a7.141,7.141,0,0,0-1.727-.9c-.761-.26-1.012.687-1.012.687l-.263,16.022Z" fill="#00afff"/>
        </g>
        <path id="Trazado_4083" data-name="Trazado 4083" d="M70.006,35.74l8.627-23.527s.567-.84,1.222-.327A7.24,7.24,0,0,1,81.7,18.56c-.655,2.4-2.947,6.415-5.652,11.8A11.685,11.685,0,0,1,70.006,35.74Z" fill="#00afff"/>
        <g id="Grupo_3048" data-name="Grupo 3048">
          <g id="Grupo_3045" data-name="Grupo 3045">
            <path id="Trazado_4084" data-name="Trazado 4084" d="M89.756,37.074a1.56,1.56,0,0,1-1.182.2l-4.19-.948a1.568,1.568,0,0,1,.693-3.058l2.66.6.6-2.66a1.568,1.568,0,0,1,3.058.692l-.948,4.189A1.563,1.563,0,0,1,89.756,37.074Z" fill="#00afff"/>
          </g>
          <g id="Grupo_3046" data-name="Grupo 3046">
            <path id="Trazado_4085" data-name="Trazado 4085" d="M78.031,44.471a1.563,1.563,0,0,1-1.183.2l-2.66-.6-.6,2.66a1.568,1.568,0,0,1-3.059-.692l.949-4.189a1.567,1.567,0,0,1,1.875-1.183l4.189.948a1.568,1.568,0,0,1,.491,2.855Z" fill="#00afff"/>
          </g>
          <g id="Grupo_3047" data-name="Grupo 3047">
            <path id="Trazado_4086" data-name="Trazado 4086" d="M90.284,37.726a2.148,2.148,0,0,1-1.626.28L87,37.629a6.557,6.557,0,0,1-11.52,5.148A42.713,42.713,0,0,1,71.8,45.086a10.872,10.872,0,0,0,19.383-8.552A2.137,2.137,0,0,1,90.284,37.726Z" fill="#00afff"/>
            <path id="Trazado_4087" data-name="Trazado 4087" d="M71.641,40.219a2.148,2.148,0,0,1,1.626-.28l.867.2a6.562,6.562,0,0,1,11.922-5.072c.056.09.1.183.154.274,1.085-.779,2.473-1.667,3.639-2.327-.049-.082-.1-.165-.147-.247a10.875,10.875,0,0,0-19.265,9.913l.252-1.111A2.141,2.141,0,0,1,71.641,40.219Z" fill="#00afff"/>
          </g>
        </g>
      </g>
    </g>
    <g id="Grupo_3051" data-name="Grupo 3051">
      <path id="Trazado_4088" data-name="Trazado 4088" d="M105.733,32.119a6.756,6.756,0,0,0-5.125,2.357V24.57H98.957V38.706h.01c0,.063-.01.125-.01.189a6.776,6.776,0,1,0,6.776-6.776Zm0,11.9a5.125,5.125,0,1,1,5.124-5.125A5.131,5.131,0,0,1,105.733,44.02Z" fill="#211748"/>
      <path id="Trazado_4089" data-name="Trazado 4089" d="M170.032,32.119a6.759,6.759,0,0,0-5.125,2.357V24.57h-1.651V38.706h.01c0,.063-.01.125-.01.189a6.776,6.776,0,1,0,6.776-6.776Zm0,11.9a5.125,5.125,0,1,1,5.125-5.125A5.131,5.131,0,0,1,170.032,44.02Z" fill="#211748"/>
      <path id="Trazado_4090" data-name="Trazado 4090" d="M125.756,45.567c-.037-.356-.061-.707-.07-1.053s-.014-.7-.014-1.053h-.056a4.334,4.334,0,0,1-.786.983,5.209,5.209,0,0,1-1.067.772,5.854,5.854,0,0,1-1.25.505,4.87,4.87,0,0,1-1.306.183,4.8,4.8,0,0,1-3.734-1.334,5.475,5.475,0,0,1-1.208-3.805v-8.34h1.854V39.7a9.99,9.99,0,0,0,.168,1.938,3.666,3.666,0,0,0,.576,1.418,2.517,2.517,0,0,0,1.1.87,4.39,4.39,0,0,0,1.727.3,7.074,7.074,0,0,0,.786-.112,3.424,3.424,0,0,0,1.362-.618,4.482,4.482,0,0,0,1.278-1.516,5.837,5.837,0,0,0,.561-2.809V32.425h1.854V42.674q0,.534.042,1.348c.028.544.06,1.058.1,1.545Z" fill="#211748"/>
      <path id="Trazado_4091" data-name="Trazado 4091" d="M133.17,39.5a5.633,5.633,0,0,0,.477,1.854,4.848,4.848,0,0,0,2.527,2.5,4.549,4.549,0,0,0,1.826.365,4.681,4.681,0,0,0,2.569-.688,5.138,5.138,0,0,0,1.643-1.586l1.432,1.179a7.114,7.114,0,0,1-2.6,2.134A7.27,7.27,0,0,1,138,45.9a6.976,6.976,0,0,1-2.71-.52,6.338,6.338,0,0,1-2.148-1.446,6.836,6.836,0,0,1-1.418-2.19A7.159,7.159,0,0,1,131.2,39a7.346,7.346,0,0,1,.506-2.752,6.643,6.643,0,0,1,1.4-2.19,6.446,6.446,0,0,1,2.106-1.446,6.52,6.52,0,0,1,2.611-.52,6.4,6.4,0,0,1,2.668.534,5.914,5.914,0,0,1,1.98,1.418,6.07,6.07,0,0,1,1.221,2.078,7.573,7.573,0,0,1,.421,2.541V39.5Zm8.93-1.516a3.948,3.948,0,0,0-4.269-4.212,4.486,4.486,0,0,0-1.741.351,4.888,4.888,0,0,0-1.474.941,4.728,4.728,0,0,0-1.011,1.347,3.475,3.475,0,0,0-.379,1.573Z" fill="#211748"/>
      <path id="Trazado_4092" data-name="Trazado 4092" d="M149.26,32.425c.037.356.061.707.07,1.053s.014.7.014,1.053h.056a4.334,4.334,0,0,1,.787-.983,5.22,5.22,0,0,1,1.067-.772,5.846,5.846,0,0,1,1.249-.505,4.869,4.869,0,0,1,1.306-.183,4.8,4.8,0,0,1,3.735,1.334,5.477,5.477,0,0,1,1.207,3.805v8.34H156.9V38.294a6.17,6.17,0,0,0-.758-3.356,3.1,3.1,0,0,0-2.808-1.165,7.316,7.316,0,0,0-.787.112,3.421,3.421,0,0,0-1.361.618,4.45,4.45,0,0,0-1.278,1.516,5.827,5.827,0,0,0-.562,2.809v6.739h-1.853V35.317q0-.532-.042-1.347t-.1-1.545Z" fill="#211748"/>
      <path id="Trazado_4093" data-name="Trazado 4093" d="M182.957,27.371a1.245,1.245,0,0,1-.421.968,1.323,1.323,0,0,1-1.854,0,1.324,1.324,0,0,1,0-1.937,1.323,1.323,0,0,1,1.854,0A1.246,1.246,0,0,1,182.957,27.371Zm-.421,18.2h-1.854V32.425h1.854Z" fill="#211748"/>
      <path id="Trazado_4094" data-name="Trazado 4094" d="M193.8,34.11h-3.791v7.75a4.2,4.2,0,0,0,.14,1.194,1.7,1.7,0,0,0,.393.716,1.369,1.369,0,0,0,.6.351,2.842,2.842,0,0,0,.772.1,3.651,3.651,0,0,0,.983-.14,4.567,4.567,0,0,0,.927-.365l.084,1.712a5.942,5.942,0,0,1-2.5.478,4.651,4.651,0,0,1-1.109-.141,2.617,2.617,0,0,1-1.053-.533,2.933,2.933,0,0,1-.787-1.067,4.282,4.282,0,0,1-.309-1.769V34.11h-2.779V32.425h2.779V28.718h1.854v3.707H193.8Z" fill="#211748"/>
    </g>
  </g>
</svg>
